<?xml version="1.0" standalone="no"?>
<!DOCTYPE svg PUBLIC "-//W3C//DTD SVG 20010904//EN"
 "http://www.w3.org/TR/2001/REC-SVG-20010904/DTD/svg10.dtd">
<svg version="1.0" xmlns="http://www.w3.org/2000/svg"
 width="512.000000pt" height="512.000000pt" viewBox="0 0 512.000000 512.000000"
 preserveAspectRatio="xMidYMid meet">
<metadata>
Created by potrace 1.14, written by Peter Selinger 2001-2017
</metadata>
<g transform="translate(0.000000,512.000000) scale(0.100000,-0.100000)"
fill="#000000" stroke="none">
<path d="M2090 4188 l0 -118 -115 0 -115 0 0 -465 0 -465 -115 0 -115 0 0 115
0 115 -115 0 -115 0 0 120 0 120 -235 0 -235 0 0 115 0 115 -350 0 -350 0 0
-235 0 -235 120 0 120 0 0 -115 0 -115 -235 0 -235 0 0 -230 0 -230 115 0 115
0 0 -120 0 -120 -115 0 -115 0 0 -230 0 -230 115 0 115 0 0 -115 0 -115 350 0
350 0 0 -120 0 -120 115 0 115 0 0 -348 0 -347 700 0 700 0 0 118 0 117 115 0
115 0 0 350 0 350 120 0 120 0 0 115 0 115 115 0 115 0 0 115 0 115 350 0 350
0 0 115 0 115 115 0 115 0 0 350 0 350 115 0 115 0 0 115 0 115 350 0 350 0 0
350 0 350 -115 0 -115 0 0 118 0 117 -1400 0 -1400 0 0 -117z"/>
</g>
</svg>
